<svg width="48" height="48" viewBox="0 0 48 48" fill="none" xmlns="http://www.w3.org/2000/svg">
    <path d="M35.0592 29.2128C35.0592 31.2288 35.6328 32.0328 37.1328 32.0328C40.476 32.0328 42.6048 27.7728 42.6048 20.688C42.6048 9.85919 34.7136 4.67519 24.8616 4.67519C14.7264 4.67519 5.508 11.472 5.508 24.3168C5.508 36.5856 13.572 43.2672 25.956 43.2672C30.1608 43.2672 32.9832 42.8064 37.3008 41.3664L38.2272 45.2232C33.9648 46.608 29.4096 47.0088 25.8984 47.0088C9.6552 47.0088 0.9552 38.0808 0.9552 24.3144C0.9552 10.4328 11.0376 0.986389 24.9192 0.986389C39.3768 0.986389 47.0352 9.62639 47.0352 20.2248C47.0352 29.2104 44.2152 36.0648 35.3448 36.0648C31.3104 36.0648 28.6632 34.452 28.3176 30.8784C27.2808 34.8528 24.516 36.0648 20.7696 36.0648C15.7584 36.0648 11.5536 32.2032 11.5536 24.4296C11.5536 16.596 15.2424 11.7576 21.8664 11.7576C25.38 11.7576 27.5688 13.14 28.5432 15.3288L30.216 12.276H35.0544V29.2128H35.0592ZM27.9768 21.6096C27.9768 18.444 25.6128 17.1168 23.6544 17.1168C21.5232 17.1168 19.164 18.8424 19.164 23.9136C19.164 27.9456 20.9496 30.192 23.6544 30.192C25.5552 30.192 27.9768 28.9824 27.9768 25.6416V21.6096Z" fill="#FED08C"/>
</svg>
