<svg width="12" height="23" viewBox="0 0 12 23" fill="none" xmlns="http://www.w3.org/2000/svg">
<path d="M2.41669 22.2917C2.05648 22.2924 1.70739 22.1669 1.43003 21.9371C1.27392 21.8077 1.14488 21.6487 1.0503 21.4693C0.955712 21.29 0.897443 21.0937 0.878826 20.8918C0.860209 20.6899 0.88161 20.4863 0.941804 20.2926C1.002 20.099 1.0998 19.9191 1.22961 19.7633L8.13628 11.5L1.47628 3.22125C1.34822 3.06355 1.25259 2.8821 1.19488 2.68733C1.13717 2.49256 1.11853 2.2883 1.14002 2.0863C1.16151 1.88429 1.22271 1.68853 1.3201 1.51026C1.41749 1.33199 1.54916 1.17472 1.70753 1.04749C1.86704 0.907147 2.05384 0.801284 2.2562 0.736551C2.45856 0.671818 2.67212 0.649612 2.88347 0.671327C3.09482 0.693041 3.29941 0.758207 3.48438 0.862735C3.66935 0.967262 3.83072 1.1089 3.95836 1.27874L11.4046 10.5287C11.6314 10.8046 11.7553 11.1506 11.7553 11.5077C11.7553 11.8648 11.6314 12.2108 11.4046 12.4867L3.69628 21.7367C3.54162 21.9232 3.34516 22.0707 3.12284 22.1671C2.90052 22.2636 2.65859 22.3062 2.41669 22.2917Z" fill="#FBF6E5" />
</svg>
