<svg width="11" height="22" viewBox="0 0 11 22" fill="none" xmlns="http://www.w3.org/2000/svg">
<path d="M9.34099 0.00363612C9.70121 0.00301159 10.0503 0.128541 10.3276 0.358436C10.4837 0.487892 10.6127 0.646869 10.7072 0.826258C10.8018 1.00565 10.86 1.20192 10.8786 1.40385C10.8971 1.60578 10.8757 1.80938 10.8154 2.00301C10.7552 2.19664 10.6574 2.37648 10.5275 2.53223L3.61904 10.794L10.2772 19.0743C10.4052 19.232 10.5008 19.4135 10.5585 19.6082C10.6162 19.803 10.6348 20.0073 10.6132 20.2093C10.5917 20.4113 10.5304 20.607 10.433 20.7853C10.3356 20.9635 10.2039 21.1208 10.0455 21.248C9.88595 21.3883 9.69912 21.4941 9.49675 21.5588C9.29437 21.6235 9.08081 21.6456 8.86946 21.6239C8.65811 21.6021 8.45355 21.5369 8.2686 21.4323C8.08365 21.3278 7.92231 21.1861 7.7947 21.0162L0.35049 11.7646C0.123799 11.4887 -8.33897e-05 11.1426 -4.8157e-06 10.7855C7.37583e-05 10.4285 0.124109 10.0825 0.350921 9.80666L8.06129 0.558356C8.21599 0.371821 8.41248 0.224382 8.63482 0.128002C8.85717 0.0316215 9.0991 -0.0109868 9.34099 0.00363612Z" fill="#FBF6E5" />
</svg>
